<svg xmlns="http://www.w3.org/2000/svg" xmlns:xlink="http://www.w3.org/1999/xlink">
<symbol class="bi bi-box-arrow-right" viewBox="0 0 16 16" id="box-arrow-right"><path fill-rule="evenodd" d="M10 12.5a.5.5 0 0 1-.5.5h-8a.5.5 0 0 1-.5-.5v-9a.5.5 0 0 1 .5-.5h8a.5.5 0 0 1 .5.5v2a.5.5 0 0 0 1 0v-2A1.5 1.5 0 0 0 9.5 2h-8A1.5 1.5 0 0 0 0 3.5v9A1.5 1.5 0 0 0 1.5 14h8a1.5 1.5 0 0 0 1.5-1.5v-2a.5.5 0 0 0-1 0z"/><path fill-rule="evenodd" d="M15.854 8.354a.5.5 0 0 0 0-.708l-3-3a.5.5 0 0 0-.708.708L14.293 7.5H5.5a.5.5 0 0 0 0 1h8.793l-2.147 2.146a.5.5 0 0 0 .708.708z"/></symbol>
<symbol class="bi bi-chat-left" viewBox="0 0 16 16" id="chat-left"><path d="M14 1a1 1 0 0 1 1 1v8a1 1 0 0 1-1 1H4.414A2 2 0 0 0 3 11.586l-2 2V2a1 1 0 0 1 1-1zM2 0a2 2 0 0 0-2 2v12.793a.5.5 0 0 0 .854.353l2.853-2.853A1 1 0 0 1 4.414 12H14a2 2 0 0 0 2-2V2a2 2 0 0 0-2-2z"/></symbol>
<symbol class="bi bi-check-lg" viewBox="0 0 16 16" id="check-lg"><path d="M12.736 3.97a.733.733 0 0 1 1.047 0c.286.289.29.756.01 1.05L7.88 12.01a.733.733 0 0 1-1.065.02L3.217 8.384a.757.757 0 0 1 0-1.06.733.733 0 0 1 1.047 0l3.052 3.093 5.4-6.425z"/></symbol>
<symbol class="bi bi-eye" viewBox="0 0 16 16" id="eye"><path d="M16 8s-3-5.5-8-5.5S0 8 0 8s3 5.5 8 5.5S16 8 16 8M1.173 8a13 13 0 0 1 1.66-2.043C4.12 4.668 5.88 3.5 8 3.5s3.879 1.168 5.168 2.457A13 13 0 0 1 14.828 8q-.086.13-.195.288c-.335.48-.83 1.12-1.465 1.755C11.879 11.332 10.119 12.5 8 12.5s-3.879-1.168-5.168-2.457A13 13 0 0 1 1.172 8z"/><path d="M8 5.5a2.5 2.5 0 1 0 0 5 2.5 2.5 0 0 0 0-5M4.5 8a3.5 3.5 0 1 1 7 0 3.5 3.5 0 0 1-7 0"/></symbol>
<symbol class="bi bi-file-pdf" viewBox="0 0 16 16" id="file-pdf"><path d="M4 0a2 2 0 0 0-2 2v12a2 2 0 0 0 2 2h8a2 2 0 0 0 2-2V2a2 2 0 0 0-2-2zm0 1h8a1 1 0 0 1 1 1v12a1 1 0 0 1-1 1H4a1 1 0 0 1-1-1V2a1 1 0 0 1 1-1"/><path d="M4.603 12.087a.8.8 0 0 1-.438-.42c-.195-.388-.13-.776.08-1.102.198-.307.526-.568.897-.787a7.7 7.7 0 0 1 1.482-.645 20 20 0 0 0 1.062-2.227 7.3 7.3 0 0 1-.43-1.295c-.086-.4-.119-.796-.046-1.136.075-.354.274-.672.65-.823.192-.077.4-.12.602-.077a.7.7 0 0 1 .477.365c.088.164.12.356.127.538.007.187-.012.395-.047.614-.084.51-.27 1.134-.52 1.794a11 11 0 0 0 .98 1.686 5.8 5.8 0 0 1 1.334.05c.364.065.734.195.96.465.12.144.193.32.2.518.007.192-.047.382-.138.563a1.04 1.04 0 0 1-.354.416.86.86 0 0 1-.51.138c-.331-.014-.654-.196-.933-.417a5.7 5.7 0 0 1-.911-.95 11.6 11.6 0 0 0-1.997.406 11.3 11.3 0 0 1-1.021 1.51c-.29.35-.608.655-.926.787a.8.8 0 0 1-.58.029m1.379-1.901q-.25.115-.459.238c-.328.194-.541.383-.647.547-.094.145-.096.25-.04.361q.016.032.026.044l.035-.012c.137-.056.355-.235.635-.572a8 8 0 0 0 .45-.606m1.64-1.33a13 13 0 0 1 1.01-.193 12 12 0 0 1-.51-.858 21 21 0 0 1-.5 1.05zm2.446.45q.226.244.435.41c.24.19.407.253.498.256a.1.1 0 0 0 .07-.015.3.3 0 0 0 .094-.125.44.44 0 0 0 .059-.2.1.1 0 0 0-.026-.063c-.052-.062-.2-.152-.518-.209a4 4 0 0 0-.612-.053zM8.078 5.8a7 7 0 0 0 .2-.828q.046-.282.038-.465a.6.6 0 0 0-.032-.198.5.5 0 0 0-.145.04c-.087.035-.158.106-.196.283-.04.192-.03.469.046.822q.036.167.09.346z"/></symbol>
<symbol class="bi bi-hand-thumbs-down" viewBox="0 0 16 16" id="hand-thumbs-down"><path d="M8.864 15.674c-.956.24-1.843-.484-1.908-1.42-.072-1.05-.23-2.015-.428-2.59-.125-.36-.479-1.012-1.04-1.638-.557-.624-1.282-1.179-2.131-1.41C2.685 8.432 2 7.85 2 7V3c0-.845.682-1.464 1.448-1.546 1.07-.113 1.564-.415 2.068-.723l.048-.029c.272-.166.578-.349.97-.484C6.931.08 7.395 0 8 0h3.5c.937 0 1.599.478 1.934 1.064.164.287.254.607.254.913 0 .152-.023.312-.077.464.201.262.38.577.488.9.11.33.172.762.004 1.15.069.13.12.268.159.403.077.27.113.567.113.856s-.036.586-.113.856c-.035.12-.08.244-.138.363.394.571.418 1.2.234 1.733-.206.592-.682 1.1-1.2 1.272-.847.283-1.803.276-2.516.211a10 10 0 0 1-.443-.05 9.36 9.36 0 0 1-.062 4.51c-.138.508-.55.848-1.012.964zM11.5 1H8c-.51 0-.863.068-1.14.163-.281.097-.506.229-.776.393l-.04.025c-.555.338-1.198.73-2.49.868-.333.035-.554.29-.554.55V7c0 .255.226.543.62.65 1.095.3 1.977.997 2.614 1.709.635.71 1.064 1.475 1.238 1.977.243.7.407 1.768.482 2.85.025.362.36.595.667.518l.262-.065c.16-.04.258-.144.288-.255a8.34 8.34 0 0 0-.145-4.726.5.5 0 0 1 .595-.643h.003l.014.004.058.013a9 9 0 0 0 1.036.157c.663.06 1.457.054 2.11-.163.175-.059.45-.301.57-.651.107-.308.087-.67-.266-1.021L12.793 7l.353-.354c.043-.042.105-.14.154-.315.048-.167.075-.37.075-.581s-.027-.414-.075-.581c-.05-.174-.111-.273-.154-.315l-.353-.354.353-.354c.047-.047.109-.176.005-.488a2.2 2.2 0 0 0-.505-.804l-.353-.354.353-.354c.006-.005.041-.05.041-.17a.9.9 0 0 0-.121-.415C12.4 1.272 12.063 1 11.5 1"/></symbol>
<symbol class="bi bi-hand-thumbs-up" viewBox="0 0 16 16" id="hand-thumbs-up"><path d="M8.864.046C7.908-.193 7.02.53 6.956 1.466c-.072 1.051-.23 2.016-.428 2.59-.125.36-.479 1.013-1.04 1.639-.557.623-1.282 1.178-2.131 1.41C2.685 7.288 2 7.87 2 8.72v4.001c0 .845.682 1.464 1.448 1.545 1.07.114 1.564.415 2.068.723l.048.03c.272.165.578.348.97.484.397.136.861.217 1.466.217h3.5c.937 0 1.599-.477 1.934-1.064a1.86 1.86 0 0 0 .254-.912c0-.152-.023-.312-.077-.464.201-.263.38-.578.488-.901.11-.33.172-.762.004-1.149.069-.13.12-.269.159-.403.077-.27.113-.568.113-.857 0-.288-.036-.585-.113-.856a2 2 0 0 0-.138-.362 1.9 1.9 0 0 0 .234-1.734c-.206-.592-.682-1.1-1.2-1.272-.847-.282-1.803-.276-2.516-.211a10 10 0 0 0-.443.05 9.4 9.4 0 0 0-.062-4.509A1.38 1.38 0 0 0 9.125.111zM11.5 14.721H8c-.51 0-.863-.069-1.14-.164-.281-.097-.506-.228-.776-.393l-.04-.024c-.555-.339-1.198-.731-2.49-.868-.333-.036-.554-.29-.554-.55V8.72c0-.254.226-.543.62-.65 1.095-.3 1.977-.996 2.614-1.708.635-.71 1.064-1.475 1.238-1.978.243-.7.407-1.768.482-2.85.025-.362.36-.594.667-.518l.262.066c.16.04.258.143.288.255a8.34 8.34 0 0 1-.145 4.725.5.5 0 0 0 .595.644l.003-.001.014-.003.058-.014a9 9 0 0 1 1.036-.157c.663-.06 1.457-.054 2.11.164.175.058.45.3.57.65.107.308.087.67-.266 1.022l-.353.353.353.354c.043.043.105.141.154.315.048.167.075.37.075.581 0 .212-.027.414-.075.582-.05.174-.111.272-.154.315l-.353.353.353.354c.047.047.109.177.005.488a2.2 2.2 0 0 1-.505.805l-.353.353.353.354c.006.005.041.05.041.17a.9.9 0 0 1-.121.416c-.165.288-.503.56-1.066.56z"/></symbol>
<symbol class="bi bi-pencil-fill" viewBox="0 0 16 16" id="pencil-fill"><path d="M12.854.146a.5.5 0 0 0-.707 0L10.5 1.793 14.207 5.5l1.647-1.646a.5.5 0 0 0 0-.708zm.646 6.061L9.793 2.5 3.293 9H3.5a.5.5 0 0 1 .5.5v.5h.5a.5.5 0 0 1 .5.5v.5h.5a.5.5 0 0 1 .5.5v.5h.5a.5.5 0 0 1 .5.5v.207zm-7.468 7.468A.5.5 0 0 1 6 13.5V13h-.5a.5.5 0 0 1-.5-.5V12h-.5a.5.5 0 0 1-.5-.5V11h-.5a.5.5 0 0 1-.5-.5V10h-.5a.5.5 0 0 1-.175-.032l-.179.178a.5.5 0 0 0-.11.168l-2 5a.5.5 0 0 0 .65.65l5-2a.5.5 0 0 0 .168-.11z"/></symbol>
<symbol class="bi bi-person-circle" viewBox="0 0 16 16" id="person-circle"><path d="M11 6a3 3 0 1 1-6 0 3 3 0 0 1 6 0"/><path fill-rule="evenodd" d="M0 8a8 8 0 1 1 16 0A8 8 0 0 1 0 8m8-7a7 7 0 0 0-5.468 11.37C3.242 11.226 4.805 10 8 10s4.757 1.225 5.468 2.37A7 7 0 0 0 8 1"/></symbol>
<symbol class="bi bi-plus-circle" viewBox="0 0 16 16" id="plus-circle"><path d="M8 15A7 7 0 1 1 8 1a7 7 0 0 1 0 14m0 1A8 8 0 1 0 8 0a8 8 0 0 0 0 16"/><path d="M8 4a.5.5 0 0 1 .5.5v3h3a.5.5 0 0 1 0 1h-3v3a.5.5 0 0 1-1 0v-3h-3a.5.5 0 0 1 0-1h3v-3A.5.5 0 0 1 8 4"/></symbol>
<symbol class="bi bi-plus-lg" viewBox="0 0 16 16" id="plus-lg"><path fill-rule="evenodd" d="M8 2a.5.5 0 0 1 .5.5v5h5a.5.5 0 0 1 0 1h-5v5a.5.5 0 0 1-1 0v-5h-5a.5.5 0 0 1 0-1h5v-5A.5.5 0 0 1 8 2"/></symbol>
<symbol class="bi bi-star" viewBox="0 0 16 16" id="star"><path d="M2.866 14.85c-.078.444.36.791.746.593l4.39-2.256 4.389 2.256c.386.198.824-.149.746-.592l-.83-4.73 3.522-3.356c.33-.314.16-.888-.282-.95l-4.898-.696L8.465.792a.513.513 0 0 0-.927 0L5.354 5.12l-4.898.696c-.441.062-.612.636-.283.95l3.523 3.356-.83 4.73zm4.905-2.767-3.686 1.894.694-3.957a.56.56 0 0 0-.163-.505L1.71 6.745l4.052-.576a.53.53 0 0 0 .393-.288L8 2.223l1.847 3.658a.53.53 0 0 0 .393.288l4.052.575-2.906 2.77a.56.56 0 0 0-.163.506l.694 3.957-3.686-1.894a.5.5 0 0 0-.461 0z"/></symbol>
<symbol class="bi bi-star-fill" viewBox="0 0 16 16" id="star-fill"><path d="M3.612 15.443c-.386.198-.824-.149-.746-.592l.83-4.73L.173 6.765c-.329-.314-.158-.888.283-.95l4.898-.696L7.538.792c.197-.39.73-.39.927 0l2.184 4.327 4.898.696c.441.062.612.636.282.95l-3.522 3.356.83 4.73c.078.443-.36.79-.746.592L8 13.187l-4.389 2.256z"/></symbol>
</svg>
